<svg width="200" viewBox="0 0 121 44" fill="none" xmlns="http://www.w3.org/2000/svg">
    <path
        d="M-0.00164795 42.4145V38.762H25.218V42.4145H-0.00164795ZM35.9615 36.5444C33.5265 36.5444 31.6568 35.8631 30.3523 34.5007C29.0479 33.1093 28.3956 31.1381 28.3956 28.5871V15.325H33.5265V27.8044C33.5265 29.2828 33.8019 30.3264 34.3527 30.9352C34.9325 31.5439 35.9181 31.8483 37.3095 31.8483C38.1212 31.8483 38.8893 31.7468 39.614 31.5439C40.3388 31.341 41.0635 31.0511 41.7882 30.6743V15.325H46.9191V36.0226H43.1361L42.7013 34.2398C41.6287 35.0515 40.5417 35.6457 39.4401 36.0226C38.3386 36.3704 37.179 36.5444 35.9615 36.5444ZM53.9666 36.0226V15.325H57.7495L58.1843 17.1078C59.2859 16.2961 60.373 15.7164 61.4455 15.3685C62.5471 14.9917 63.7066 14.8033 64.9241 14.8033C67.3591 14.8033 69.2288 15.499 70.5333 16.8904C71.8378 18.2529 72.49 20.2096 72.49 22.7605V36.0226H67.3591V23.5432C67.3591 22.0648 67.0692 21.0212 66.4895 20.4125C65.9387 19.8037 64.9676 19.4993 63.5761 19.4993C62.7645 19.4993 61.9963 19.6008 61.2716 19.8037C60.5759 19.9776 59.8512 20.2675 59.0975 20.6734V36.0226H53.9666ZM84.8423 36.0226V19.9342H78.7983V15.325H84.8423V12.5857C84.8423 10.0057 85.567 8.03453 87.0165 6.67209C88.4948 5.30964 90.6255 4.62842 93.4083 4.62842C95.9013 4.62842 98.1914 5.19369 100.279 6.32423L98.9741 10.6725C97.4377 9.77382 95.8433 9.3245 94.191 9.3245C92.7416 9.3245 91.6691 9.65787 90.9733 10.3246C90.3066 10.9623 89.9732 11.9769 89.9732 13.3683V15.325H97.8V19.9342H89.9732V36.0226H84.8423Z"
        fill="currentColor" />
    <rect x="107.998" y="0.622589" width="12.28" height="42.8" fill="currentColor">
        <animate attributeName="opacity" values="1;0;1" dur="1s" repeatCount="indefinite" keyTimes="0;0.5;1"
            calcMode="discrete" />
    </rect>
</svg>