<svg width="177" height="177" viewBox="0 0 177 177" fill="none" xmlns="http://www.w3.org/2000/svg">
<rect x="2.99155" y="2.99155" width="171.017" height="171.017" rx="26.9239" stroke="#FFBA75" stroke-width="5.9831"/>
<path d="M74.7485 91.7405C82.078 92.4224 87.8159 98.5893 87.8159 106.097V125.563C87.8159 133.526 81.3597 139.983 73.3959 139.983H53.9301C45.9664 139.983 39.5102 133.526 39.5102 125.563V106.097C39.5102 98.5893 45.2481 92.4224 52.5776 91.7405H74.7485ZM127.557 37.5159C135.521 37.5159 141.977 43.972 141.977 51.9358V71.4016C141.977 79.3654 135.521 85.8215 127.557 85.8215H108.091C100.428 85.8215 94.1616 79.8432 93.6996 72.2961H93.7348V50.5823C94.4172 43.2532 100.584 37.5159 108.091 37.5159H127.557ZM73.3959 37.5159C80.9032 37.5159 87.07 43.2532 87.7524 50.5823V72.2961H87.7875C87.3531 79.394 81.7847 85.1034 74.7485 85.7581H52.5776C45.2481 85.0762 39.5102 78.9092 39.5102 71.4016V51.9358C39.5102 43.972 45.9664 37.5159 53.9301 37.5159H73.3959Z" fill="#FFBA75"/>
</svg>
